<?xml version="1.0" encoding="UTF-8"?>
<svg width="20px" height="17px" viewBox="0 0 20 17" version="1.1" xmlns="http://www.w3.org/2000/svg" xmlns:xlink="http://www.w3.org/1999/xlink">
    <!-- Generator: sketchtool 51 (57462) - http://www.bohemiancoding.com/sketch -->
    <title>A9CBA388-5EA6-4074-8925-A2989A689B29</title>
    <desc>Created with sketchtool.</desc>
    <defs></defs>
    <g id="Page-1" stroke="none" stroke-width="1" fill="none" fill-rule="evenodd">
        <g id="02" transform="translate(-249.000000, -312.000000)" fill="#F78600" fill-rule="nonzero">
            <g id="Group-9" transform="translate(241.000000, 301.000000)">
                <g id="delivery-motorbike" transform="translate(8.000000, 11.000000)">
                    <path d="M18.6957279,0 L16.4545312,0 L16.4545312,0.861785208 C16.4545312,0.969592429 16.36043,1.05718332 16.2440191,1.05718332 L15.7561515,1.05718332 C15.639698,1.05718332 15.5455114,0.969552867 15.5455114,0.861785208 L15.5455114,0 L13.3044427,0 C13.1363743,0 13,0.126401494 13,0.282276889 L13,4.71772311 C13,4.87371719 13.1363743,5 13.3044427,5 L18.6957279,5 C18.8637537,5 19,4.87375676 19,4.71772311 L19,0.282237326 C19,0.126401494 18.8637537,0 18.6957279,0 Z" id="Shape"></path>
                    <g id="Group" transform="translate(0.000000, 1.000000)">
                        <g transform="translate(0.000000, 10.165729)" id="Shape">
                            <path d="M15.4633878,5.08562483 C14.1607755,5.08562483 13.1009796,3.9479834 13.1009796,2.54931936 C13.1009796,1.15065532 14.1607755,0.0129262497 15.4633878,0.0129262497 C16.7663265,0.0129262497 17.8262041,1.15065532 17.8262041,2.54931936 C17.8262041,3.9479834 16.7662857,5.08562483 15.4633878,5.08562483 Z M15.4633878,1.29109135 C14.8172653,1.29109135 14.2913469,1.85559601 14.2913469,2.54931936 C14.2913469,3.24295506 14.8172653,3.807635 15.4633878,3.807635 C16.1097143,3.807635 16.6355102,3.24295506 16.6355102,2.54931936 C16.6354694,1.85559601 16.1097143,1.29109135 15.4633878,1.29109135 Z"></path>
                            <path d="M2.36257143,5.08562483 C1.05991837,5.08562483 0,3.9479834 0,2.54931936 C0,1.15065532 1.05991837,0.0129262497 2.36257143,0.0129262497 C3.66526531,0.0129262497 4.72514286,1.15065532 4.72514286,2.54931936 C4.72514286,3.9479834 3.66526531,5.08562483 2.36257143,5.08562483 Z M2.36257143,1.29109135 C1.71628571,1.29109135 1.1904898,1.85559601 1.1904898,2.54931936 C1.1904898,3.24295506 1.71628571,3.807635 2.36257143,3.807635 C3.00889796,3.807635 3.53465306,3.24295506 3.53465306,2.54931936 C3.53465306,1.85559601 3.00889796,1.29109135 2.36257143,1.29109135 Z"></path>
                        </g>
                        <path d="M16.5917143,7.75136807 L16.5917143,7.05628637 L18.2385714,7.05628637 C18.6112245,7.05628637 18.9133878,6.73220996 18.9133878,6.3321973 L18.9133878,5.81663711 C18.9133878,5.41679973 18.6112245,5.09254804 18.2385714,5.09254804 L9.9844898,5.09254804 C9.61187755,5.09254804 9.30971429,5.41679973 9.30971429,5.81663711 L9.30971429,6.33986541 C9.30971429,6.73979043 9.61187755,7.06404212 9.9844898,7.06404212 L10.897102,7.06404212 L10.897102,9.84739233 L6.32465306,9.84739233 C5.98967347,9.28656836 5.55044898,8.80422206 5.03653061,8.43150789 L6.83514286,1.46789616 L8.49742857,1.46789616 C8.87004082,1.46789616 9.172,1.1434692 9.172,0.743544176 C9.172,0.34370679 8.87004082,0.0194551013 8.49742857,0.0194551013 C8.49742857,0.0194551013 6.74853061,0.0194551013 6.13465306,0.0194551013 C6.05065306,0.0194551013 5.9042449,0.057269859 5.8324898,0.0952598879 C5.7284898,0.150908489 5.63767347,0.234951021 5.57138776,0.341822625 L0.784816327,8.04551693 C0.642204082,8.27126621 0.536979592,8.55481117 0.615714286,8.80387152 C0.738,9.19087029 1.15146939,9.32933453 1.57502041,9.19446335 C1.89673469,9.09210498 2.1637551,9.04727938 2.50326531,9.04727938 C4.26073469,9.04727938 5.69053061,10.5822606 5.69053061,12.469011 C5.69053061,12.8690237 5.99240816,13.193363 6.36502041,13.193363 L11.6016327,13.193363 C11.9742449,13.193363 12.2763673,12.8690237 12.2763673,12.469011 C12.2763673,10.5822606 13.7059592,9.04727938 15.4633878,9.04727938 C17.2208163,9.04727938 18.6507347,10.5822606 18.6507347,12.469011 C18.6507347,12.8690237 18.9529388,13.193363 19.3253061,13.193363 C19.6980816,13.193363 20,12.8690237 20,12.469011 C20,10.2015716 18.5489796,8.29115949 16.5917143,7.75136807 Z" id="Shape"></path>
                    </g>
                </g>
            </g>
        </g>
    </g>
</svg>